# xmcd
#
# Track frame offsets: 
#        150
#        13528
#        24735
#        41197
#        52701
#        64233
#        73431
#        87547
#        101546
#        114095
#        127125
#        140071
#        151760
#        160758
#        172513
#        185592
#        202560
#        217497
#        228702
#        240467
#        251595
#        262180
#        273542
#        286307
#        299986
#        313085
#        324589
#        338441
#
# Disc length: 4642 seconds
#
# Revision: 0
# Processed by: cddbd v1.5.2PL0 Copyright (c) Steve Scherf et al.
# Submitted via: ExactAudioCopy v0.95b3
#
DISCID=ac12201c
DTITLE=Va  - 1966 Best Year Ever - (Apr-Jun) - Disc 2
DYEAR=1900
DGENRE=
TTITLE0=Sloop John B - Beach Boys
TTITLE1=Shapes of Things - Yardbirds
TTITLE2=Eight Miles High - Byrds
TTITLE3=Good Lovin' - Young Rascals
TTITLE4=Rainy Day Women 12&35 - Bob Dylan
TTITLE5=A Groovy Kind of Love - Mindbenders
TTITLE6=Monday Monday - Mamas and Papas
TTITLE7=The Sun Ain't Gonna Shine Any More - Walker Bros.
TTITLE8=Dirty Water - Standells
TTITLE9=Hey Joe - The Leaves
TTITLE10=When a Man Loves a Woman - Percy Sledge
TTITLE11=Barefootin' - Robert Parker
TTITLE12=Did You Ever Have To Make Up Your Mind - Lovin Spoonful
TTITLE13=Hold On I'm Comin' - Sam and Dave
TTITLE14=I Am a Rock - Simon and Garfunkel
TTITLE15=Paint It Black - Rolling Stones
TTITLE16=Don't Bring Me Down - Animals
TTITLE17=Diddy Wah Diddy - Captain Beefheart
TTITLE18=Solitary Man - Neil Diamond
TTITLE19=Paperback Writer - Beatles
TTITLE20=Red Rubber Ball - Cyrkle
TTITLE21=Little Girl - Syndicate of Sound
TTITLE22=Along Comes Mary - Association
TTITLE23=Where Were You When I Needed You - The Grass Roots
TTITLE24=Hanky Panky - Tommy James and the Shondells
TTITLE25=Ain't Too Proud To Beg - Temptations
TTITLE26=Rain - Beatles
TTITLE27=They're Coming To Take Me Away - Napolean 14th
EXTD=
EXTT0=
EXTT1=
EXTT2=
EXTT3=
EXTT4=
EXTT5=
EXTT6=
EXTT7=
EXTT8=
EXTT9=
EXTT10=
EXTT11=
EXTT12=
EXTT13=
EXTT14=
EXTT15=
EXTT16=
EXTT17=
EXTT18=
EXTT19=
EXTT20=
EXTT21=
EXTT22=
EXTT23=
EXTT24=
EXTT25=
EXTT26=
EXTT27=
PLAYORDER=
